# xmcd
#
# Track frame offsets: 
#        150
#        19045
#        39703
#        62063
#        80315
#        96215
#        116595
#        130658
#        146172
#
# Disc length: 2170 seconds
#
# Revision: 0
# Processed by: cddbd v1.5.2PL0 Copyright (c) Steve Scherf et al.
# Submitted via: ExactAudioCopy v0.95b4
#
DISCID=75087809
DTITLE=Seth Augustus - to the pouring rain
DYEAR=2007
DGENRE=Blues
TTITLE0=To the Pouring Rain
TTITLE1=Trickeries of the Great Emptiness
TTITLE2=Cherry Rose
TTITLE3=Big Cocoon
TTITLE4=Slim Sam
TTITLE5=Air to the Thrown
TTITLE6=Convolution Blues
TTITLE7=Buffalo Eight
TTITLE8=Tiny Little Head
EXTD=
EXTT0=
EXTT1=
EXTT2=
EXTT3=
EXTT4=
EXTT5=
EXTT6=
EXTT7=
EXTT8=
PLAYORDER=
